<svg width="61" height="44" viewBox="0 0 61 44" fill="none" xmlns="http://www.w3.org/2000/svg">
<path d="M25.1848 17.4216C25.8508 15.9657 26.225 14.3356 26.225 12.615C26.225 6.45015 21.4402 1.45288 15.5374 1.45288C9.63456 1.45288 4.84971 6.45015 4.84971 12.615C4.84971 15.1369 5.65083 17.4618 7.00112 19.3313C3.63144 21.542 1.39026 25.4552 1.39026 29.9175C1.39026 36.8182 6.74691 42.4127 13.3543 42.4127H30.174V17.4216H25.1848Z" fill="#00DA6C"/>
<path d="M53.8207 19.6584C55.3188 17.7369 56.2188 15.2859 56.2188 12.6151C56.2188 6.45027 51.4339 1.453 45.5311 1.453C39.6283 1.453 34.8435 6.45027 34.8435 12.6151C34.8435 14.3366 35.2169 15.9658 35.8837 17.4217H30.1748V42.4128H46.9946C53.6019 42.4128 58.9586 36.8183 58.9586 29.9177C58.9586 25.6681 56.9256 21.9164 53.8214 19.6584H53.8207Z" fill="#B2F4D3"/>
<path d="M13.3543 43.8646C5.99106 43.8646 0 37.6075 0 29.9166C0 25.5977 1.85495 21.6128 5.09489 18.9578C4.02446 17.0441 3.45945 14.8539 3.45945 12.6141C3.45945 5.65905 8.87796 0 15.5374 0C22.1968 0 27.6153 5.65905 27.6153 12.6141C27.6153 13.7588 27.4704 14.8862 27.1845 15.9687H33.8847C33.598 14.8839 33.4532 13.7565 33.4532 12.6141C33.4532 5.65905 38.8717 0 45.5319 0C52.192 0 57.6098 5.65905 57.6098 12.6141C57.6098 15.0115 56.9603 17.3443 55.7299 19.3706C58.6681 22.0272 60.3488 25.8608 60.3488 29.9166C60.3488 37.6075 54.3578 43.8646 46.9946 43.8646H13.355H13.3543ZM32.1934 18.8735C31.8464 18.8735 31.5643 19.1681 31.5643 19.5306V40.3035C31.5643 40.6659 31.8464 40.9606 32.1934 40.9606H46.9938C52.8242 40.9606 57.5675 36.0066 57.5675 29.9166C57.5675 26.3068 55.8703 22.9175 53.0264 20.8494C52.7103 20.6193 52.4975 20.2585 52.444 19.8599C52.3904 19.4612 52.4991 19.0531 52.7427 18.7411C54.0877 17.0166 54.8285 14.8405 54.8285 12.6141C54.8285 7.25995 50.6577 2.90398 45.5311 2.90398C45.0529 2.90398 44.5671 2.94258 44.0873 3.01822C39.4963 3.74382 36.1213 7.9753 36.2368 12.8615C36.2692 14.2347 36.5724 15.5583 37.1382 16.7952C37.4143 17.3979 37.2597 18.118 36.7625 18.5473C36.5196 18.7569 36.1923 18.8727 35.8415 18.8727H32.1942L32.1934 18.8735ZM15.5374 2.90477C15.2771 2.90477 15.0123 2.9158 14.7513 2.93864C10.0955 3.33965 6.35767 7.48054 6.24225 12.3651C6.18945 14.5853 6.83517 16.6912 8.11003 18.4559C8.34388 18.7797 8.43742 19.1941 8.36802 19.5928C8.29786 19.9914 8.06854 20.3444 7.73964 20.5595C4.67698 22.5692 2.82278 26.0168 2.78054 29.7835C2.7481 32.6851 3.83286 35.4481 5.83566 37.565C7.87693 39.7229 10.6967 40.9598 13.5715 40.9598H28.1539C28.5009 40.9598 28.783 40.6651 28.783 40.3027V19.5298C28.783 19.1674 28.5009 18.8727 28.1539 18.8727H25.184C24.5421 18.8727 23.9853 18.4142 23.8307 17.7571C23.7553 17.438 23.7968 17.0898 23.9514 16.7471C24.5368 15.4495 24.834 14.059 24.834 12.6133C24.834 7.25916 20.6632 2.90319 15.5366 2.90319L15.5374 2.90477Z" fill="black"/>
<path d="M55.4946 19.4067C56.7498 17.397 57.4302 15.0287 57.4302 12.6148C57.4302 5.76213 52.0924 0.187378 45.5311 0.187378C38.9697 0.187378 33.632 5.76213 33.632 12.6148C33.632 13.8296 33.7964 15.0145 34.1215 16.1561H26.9477C27.2735 15.0145 27.4372 13.8296 27.4372 12.6148C27.4372 5.76213 22.0994 0.187378 15.5381 0.187378C8.97675 0.187378 3.63896 5.76213 3.63896 12.6148C3.63896 14.8956 4.22056 17.0802 5.33021 19.0049C2.08424 21.6024 0.179504 25.5936 0.179504 29.9173C0.179504 37.505 6.08985 43.6785 13.355 43.6785H46.9945C54.2597 43.6785 60.17 37.5058 60.17 29.9173C60.17 25.8513 58.4426 22.0105 55.4953 19.4075L55.4946 19.4067ZM2.60248 29.7818C2.64548 25.949 4.52381 22.4502 7.64532 20.4026C7.93272 20.2143 8.13112 19.9086 8.19222 19.5596C8.25332 19.2106 8.17261 18.8513 7.96742 18.5685C6.67145 16.7746 6.00988 14.6214 6.06344 12.3603C6.18188 7.35278 9.95589 3.16462 14.7362 2.75258C20.3207 2.27121 25.0127 6.88166 25.0127 12.6148C25.0127 14.0888 24.7102 15.5053 24.1128 16.8281C23.9883 17.1047 23.934 17.4174 24.0042 17.7137C24.143 18.3038 24.6386 18.6866 25.184 18.6866H28.1539C28.5997 18.6866 28.9618 19.064 28.9618 19.5304V40.3034C28.9618 40.769 28.6004 41.1472 28.1539 41.1472H13.5715C7.58648 41.1472 2.53082 36.0325 2.60173 29.7818H2.60248ZM46.9938 41.1472H32.1934C31.7476 41.1472 31.3855 40.7698 31.3855 40.3034V19.5304C31.3855 19.0648 31.7468 18.6866 32.1934 18.6866H35.8407C36.1319 18.6866 36.4238 18.5976 36.6479 18.4038C37.0944 18.0186 37.2106 17.3883 36.976 16.8754C36.3989 15.6141 36.0904 14.2669 36.0572 12.8661C35.941 7.92633 39.3816 3.57273 44.0593 2.83373C49.9335 1.90566 55.0065 6.65239 55.0065 12.614C55.0065 14.883 54.2514 17.1007 52.8815 18.8584C52.6688 19.131 52.5745 19.4847 52.6212 19.8337C52.668 20.1828 52.8521 20.4947 53.1289 20.6964C56.0203 22.7992 57.7463 26.246 57.7463 29.9173C57.7463 36.1097 52.923 41.1472 46.9938 41.1472Z" fill="black"/>
<path d="M45.5311 17.2042C47.9579 17.2042 49.9252 15.1496 49.9252 12.615C49.9252 10.0805 47.9579 8.02588 45.5311 8.02588C43.1043 8.02588 41.137 10.0805 41.137 12.615C41.137 15.1496 43.1043 17.2042 45.5311 17.2042Z" fill="black"/>
<path d="M15.5373 17.2042C17.9641 17.2042 19.9314 15.1496 19.9314 12.615C19.9314 10.0805 17.9641 8.02588 15.5373 8.02588C13.1106 8.02588 11.1432 10.0805 11.1432 12.615C11.1432 15.1496 13.1106 17.2042 15.5373 17.2042Z" fill="black"/>
<path d="M7.65517 35.6545C7.36098 35.6545 7.06753 35.5292 6.85556 35.2834C5.55959 33.7826 4.84521 31.8453 4.84521 29.8268C4.84521 28.7719 5.03607 27.7446 5.41324 26.7732C5.63653 26.1973 6.2649 25.9191 6.81558 26.1531C7.36701 26.3863 7.63254 27.0418 7.40925 27.6177C7.13693 28.3197 6.99889 29.0634 6.99889 29.8268C6.99889 31.2867 7.51562 32.6898 8.45403 33.7763C8.85233 34.2372 8.81763 34.9486 8.37558 35.3646C8.16964 35.5584 7.91165 35.6545 7.65442 35.6545H7.65517Z" fill="white"/>
<path d="M8.58681 25.3549C8.26244 25.3549 7.94109 25.2021 7.72912 24.9113C7.36854 24.4174 7.46057 23.7115 7.93354 23.3349C8.04293 23.2482 8.15457 23.1639 8.26848 23.0836C8.75956 22.7345 9.43018 22.8669 9.76511 23.3798C10.1 23.8935 9.97255 24.5931 9.48072 24.9429C9.39849 25.0012 9.31778 25.0626 9.23857 25.1249C9.04395 25.2801 8.81463 25.3549 8.58681 25.3549Z" fill="white"/>
</svg>
