<svg xmlns="http://www.w3.org/2000/svg" xmlns:xlink="http://www.w3.org/1999/xlink" width="400" zoomAndPan="magnify" viewBox="0 0 300 299.999988" height="400" preserveAspectRatio="xMidYMid meet" version="1.0"><path fill="#63aff5" d="M 51.167969 197.628906 C 54.898438 200.273438 59.371094 202.746094 64.519531 205.007812 L 64.519531 168.277344 C 59.621094 166.285156 55.132812 164.089844 51.167969 161.6875 Z M 51.167969 197.628906 " fill-opacity="1" fill-rule="nonzero"/><path fill="#63aff5" d="M 98.542969 215.058594 C 107.339844 216.742188 116.8125 218.007812 126.792969 218.785156 L 126.792969 181.472656 C 117.121094 180.71875 107.601562 179.496094 98.542969 177.816406 Z M 98.542969 215.058594 " fill-opacity="1" fill-rule="nonzero"/><path fill="#63aff5" d="M 71.132812 207.667969 C 77.371094 209.964844 84.351562 211.992188 91.933594 213.695312 L 91.933594 176.492188 C 84.558594 174.898438 77.566406 172.984375 71.132812 170.761719 L 71.132812 207.671875 Z M 71.132812 207.667969 " fill-opacity="1" fill-rule="nonzero"/><path fill="#63aff5" d="M 38.789062 151.585938 L 38.789062 178.964844 C 38.789062 183.492188 40.835938 187.839844 44.558594 191.910156 L 44.558594 157.105469 C 42.371094 155.351562 40.4375 153.515625 38.789062 151.589844 Z M 38.789062 151.585938 " fill-opacity="1" fill-rule="nonzero"/><path fill="#63aff5" d="M 133.40625 181.910156 L 133.40625 219.21875 C 138.789062 219.515625 144.292969 219.667969 149.898438 219.667969 C 155.503906 219.667969 161.011719 219.515625 166.394531 219.21875 L 166.394531 181.910156 C 160.898438 182.214844 155.382812 182.371094 149.898438 182.371094 C 144.417969 182.371094 138.898438 182.214844 133.402344 181.910156 Z M 133.40625 181.910156 " fill-opacity="1" fill-rule="nonzero"/><path fill="#63aff5" d="M 255.242188 157.101562 L 255.242188 191.90625 C 258.964844 187.839844 261.011719 183.488281 261.011719 178.960938 L 261.011719 151.582031 C 259.359375 153.507812 257.429688 155.347656 255.242188 157.101562 Z M 255.242188 157.101562 " fill-opacity="1" fill-rule="nonzero"/><path fill="#63aff5" d="M 235.28125 205.007812 C 240.429688 202.746094 244.90625 200.269531 248.628906 197.628906 L 248.628906 161.691406 C 244.667969 164.089844 240.179688 166.285156 235.28125 168.28125 L 235.28125 205.011719 Z M 235.28125 205.007812 " fill-opacity="1" fill-rule="nonzero"/><path fill="#63aff5" d="M 173.007812 218.785156 C 182.988281 218.011719 192.464844 216.742188 201.253906 215.058594 L 201.253906 177.816406 C 192.195312 179.496094 182.675781 180.71875 173.007812 181.472656 Z M 173.007812 218.785156 " fill-opacity="1" fill-rule="nonzero"/><path fill="#63aff5" d="M 207.871094 213.695312 C 215.449219 211.992188 222.433594 209.964844 228.667969 207.667969 L 228.667969 170.757812 C 222.234375 172.984375 215.246094 174.898438 207.871094 176.488281 Z M 207.871094 213.695312 " fill-opacity="1" fill-rule="nonzero"/><path fill="#63aff5" d="M 149.898438 94.339844 C 144.808594 94.339844 139.820312 94.496094 134.910156 94.742188 L 134.910156 90.6875 C 134.910156 84.917969 130.21875 80.226562 124.449219 80.226562 C 118.679688 80.226562 113.988281 84.917969 113.988281 90.6875 L 113.988281 96.273438 L 104.484375 97.386719 L 104.484375 95.070312 C 104.484375 89.304688 99.792969 84.609375 94.023438 84.609375 C 88.253906 84.609375 83.5625 89.304688 83.5625 95.070312 L 83.5625 102.40625 C 56.398438 109.824219 38.789062 121.683594 38.789062 135.054688 C 38.789062 157.535156 88.535156 175.761719 149.898438 175.761719 C 211.265625 175.761719 261.011719 157.535156 261.011719 135.054688 C 261.011719 112.570312 211.265625 94.34375 149.898438 94.34375 Z M 120.601562 90.6875 C 120.601562 88.5625 122.328125 86.835938 124.449219 86.835938 C 126.570312 86.835938 128.300781 88.5625 128.300781 90.6875 L 128.300781 94.597656 L 120.601562 95.5 Z M 104.484375 104.042969 L 128.300781 101.253906 L 128.300781 106.800781 L 104.484375 109.589844 Z M 90.175781 95.070312 C 90.175781 92.949219 91.902344 91.222656 94.023438 91.222656 C 96.148438 91.222656 97.875 92.949219 97.875 95.070312 L 97.875 99.078125 C 95.242188 99.589844 92.679688 100.144531 90.175781 100.730469 Z M 239.070312 140.9375 C 229.417969 129.871094 193.167969 121.636719 149.898438 121.636719 C 106.628906 121.636719 70.382812 129.867188 60.726562 140.9375 C 59.082031 139.050781 58.183594 137.082031 58.183594 135.054688 C 58.183594 126.449219 73.90625 118.859375 97.871094 114.316406 L 97.871094 122.042969 C 100.023438 121.640625 102.234375 121.273438 104.484375 120.925781 L 104.484375 116.246094 L 128.296875 113.457031 L 128.296875 118.367188 C 130.480469 118.226562 132.683594 118.101562 134.910156 118.003906 L 134.910156 110.226562 C 139.792969 110.003906 144.785156 109.863281 149.898438 109.863281 C 200.550781 109.863281 241.613281 121.140625 241.613281 135.054688 C 241.613281 137.082031 240.714844 139.050781 239.070312 140.9375 Z M 239.070312 140.9375 " fill-opacity="1" fill-rule="nonzero"/></svg>