<svg width="16" height="16" viewBox="0 0 16 16" fill="none" xmlns="http://www.w3.org/2000/svg">
<path d="M14.7648 12.1611L8.53877 15.6167C8.24009 15.7825 7.75134 15.7825 7.45268 15.6167L1.22665 12.1611C1.0773 12.0783 1.00265 11.969 1.00265 11.8597H0.936523V4.14029H14.9888V11.8597C14.9888 11.969 14.9141 12.0783 14.7648 12.1611Z" fill="#FF473E"/>
<path d="M14.9889 4.14029V11.8597C14.9889 11.969 14.9142 12.0783 14.7649 12.1612L8.53883 15.6167C8.38352 15.7029 8.17686 15.744 7.9722 15.7404C7.97705 11.875 8.08692 8.00463 7.9668 4.14026L14.9889 4.14029Z" fill="#FF6E83"/>
<path d="M7.45246 7.89725L1.22646 4.44165C0.92777 4.27587 0.92777 4.00462 1.22646 3.83884L7.45246 0.383278C7.75114 0.217496 8.23989 0.217496 8.53855 0.383278L14.7646 3.83887C15.0633 4.00465 15.0633 4.2759 14.7646 4.44168L8.53858 7.89725C8.23989 8.06303 7.75114 8.06303 7.45246 7.89725Z" fill="#FFA9BA"/>
<path d="M12.2809 0.927403C12.2806 0.963932 12.2704 0.999702 12.2515 1.03095C12.2326 1.06219 12.2056 1.08775 12.1733 1.10493L4.71353 5.08134C4.70326 5.08681 4.69253 5.09139 4.68147 5.09503L4.65625 5.10912V12.5301C4.65625 12.5654 4.64702 12.6002 4.62947 12.6309C4.61192 12.6616 4.58666 12.6872 4.55618 12.7051C4.52571 12.7231 4.49108 12.7327 4.45571 12.7332C4.42035 12.7336 4.38549 12.7248 4.35456 12.7077L3.10456 12.0139C3.07287 11.9963 3.04646 11.9706 3.02808 11.9393C3.00969 11.9081 3 11.8725 3 11.8363V4.61487C3.00003 4.49096 3.02789 4.36863 3.0815 4.25692C3.13512 4.1452 3.21313 4.04695 3.30978 3.9694L3.31716 3.96365C3.33353 3.95084 3.34906 3.93956 3.36503 3.92878C3.38876 3.91266 3.41329 3.89777 3.43853 3.88415L10.6804 0.0239028C10.7103 0.0079535 10.7438 -0.000250672 10.7777 3.86271e-05C10.8116 0.000327926 10.8449 0.00910142 10.8745 0.025559L12.1764 0.74809C12.2083 0.765819 12.2349 0.791831 12.2533 0.823387C12.2717 0.854944 12.2812 0.890877 12.2809 0.927403ZM12.9688 4.069C12.9216 4.01509 12.8675 3.96758 12.8079 3.92765C12.804 3.925 12.8001 3.92234 12.7955 3.91934C12.7762 3.90674 12.7563 3.89497 12.736 3.88406L5.49416 0.0238714C5.46423 0.00792215 5.43079 -0.000281905 5.39688 7.39423e-06C5.36297 0.000296693 5.32968 0.00907018 5.30003 0.0255277L3.99819 0.748059C3.96623 0.765779 3.93965 0.791791 3.92124 0.823353C3.90283 0.854916 3.89328 0.89086 3.89359 0.927398C3.8939 0.963935 3.90406 0.999712 3.92301 1.03096C3.94195 1.0622 3.96897 1.08776 4.00122 1.10493L11.461 5.08134C11.4714 5.08686 11.4821 5.09143 11.4931 5.09506L11.5183 5.10915V12.5301C11.5183 12.5655 11.5275 12.6002 11.5451 12.6309C11.5626 12.6616 11.5879 12.6872 11.6184 12.7051C11.6489 12.7231 11.6835 12.7328 11.7188 12.7332C11.7542 12.7337 11.7891 12.7249 11.82 12.7077L13.07 12.0139C13.1017 11.9963 13.1281 11.9706 13.1465 11.9394C13.1649 11.9081 13.1746 11.8726 13.1746 11.8363V4.61487C13.1745 4.41398 13.1013 4.21998 12.9688 4.069Z" fill="#FFD4DE"/>
<path d="M10.4876 4.28383C10.4876 4.79355 9.86243 5.16349 9.00109 5.16349C8.6498 5.16349 8.3379 5.10189 8.09159 4.99445C8.06013 4.9808 8.02606 4.97424 7.99179 4.97527C7.95751 4.97629 7.92389 4.98485 7.8933 5.00036C7.63659 5.12992 7.29618 5.20542 6.90743 5.20542C6.04609 5.20542 5.4209 4.83549 5.4209 4.32577C5.4209 4.06914 5.5794 3.84799 5.84671 3.69158C5.95202 3.62999 5.99624 3.49852 5.94409 3.38824C5.75355 2.9853 5.75968 2.60727 5.99337 2.37358C6.1144 2.25255 6.28015 2.18858 6.47274 2.18858C6.60806 2.18858 6.75499 2.22055 6.90596 2.28058C6.96396 2.30371 7.02874 2.3031 7.08629 2.27889C7.14385 2.25467 7.18957 2.20878 7.21359 2.15114C7.36874 1.7808 7.62546 1.5527 7.93327 1.5527C8.23584 1.5527 8.48912 1.77305 8.64502 2.1323C8.69677 2.25155 8.83337 2.30845 8.95352 2.25886C9.11127 2.19377 9.26496 2.15895 9.40609 2.15895C9.64937 2.15895 9.80105 2.25955 9.88546 2.34395C10.1152 2.57367 10.1251 2.94283 9.94437 3.33805C9.89368 3.44892 9.93862 3.58011 10.0447 3.64008C10.3223 3.79689 10.4876 4.02186 10.4876 4.28383Z" fill="#FF6E83"/>
</svg>
