<svg width="10" height="10" viewBox="0 0 10 10" fill="none" xmlns="http://www.w3.org/2000/svg">
<path d="M10 5C10 7.7615 7.7615 10 5 10C2.2385 10 0 7.7615 0 5C0 2.2385 2.2385 0 5 0V1C4.05938 1.00007 3.14887 1.33163 2.42846 1.93641C1.70804 2.5412 1.2238 3.38052 1.06082 4.30691C0.897835 5.2333 1.06654 6.1875 1.53728 7.00185C2.00802 7.8162 2.7507 8.4386 3.63481 8.75971C4.51892 9.08081 5.48792 9.08007 6.37154 8.75762C7.25516 8.43517 7.99689 7.81164 8.46639 6.99657C8.93589 6.18151 9.10314 5.22705 8.93875 4.30091C8.77435 3.37477 8.28884 2.53619 7.5675 1.9325L6.5 3V0H9.5L8.2765 1.2235C8.818 1.6924 9.2522 2.27238 9.54959 2.92402C9.84699 3.57567 10.0006 4.2837 10 5Z" fill="#EBEBEB"/>
</svg>
