<svg width="17" height="16" viewBox="0 0 17 16" fill="none" xmlns="http://www.w3.org/2000/svg">
<path d="M16.9156 0.217107C16.9091 0.185492 16.8937 0.156392 16.8712 0.13322C16.8487 0.110047 16.8201 0.0937616 16.7887 0.0862729C14.695 -0.425626 9.85732 1.39855 7.23634 4.01846C6.76886 4.48216 6.34269 4.98571 5.96267 5.52342C5.15442 5.45192 4.34618 5.51162 3.65733 5.8119C1.71376 6.66733 1.14788 8.89938 0.990234 9.85955C0.981292 9.9121 0.984665 9.96601 1.00009 10.017C1.01551 10.0681 1.04256 10.1148 1.07911 10.1536C1.11567 10.1924 1.16072 10.2222 1.21074 10.2407C1.26076 10.2591 1.31437 10.2657 1.36737 10.2599L4.48845 9.91567C4.49067 10.151 4.50487 10.386 4.53099 10.6199C4.5467 10.7823 4.61879 10.9341 4.73475 11.0489L5.94336 12.2546C6.05827 12.3704 6.20998 12.4425 6.37233 12.4584C6.60489 12.4844 6.83862 12.4985 7.07261 12.5009L6.73016 15.6181C6.72444 15.671 6.73108 15.7246 6.74955 15.7746C6.76802 15.8246 6.79781 15.8696 6.8366 15.9061C6.87539 15.9427 6.92211 15.9697 6.97311 15.9852C7.0241 16.0006 7.07798 16.0041 7.13053 15.9952C8.08891 15.8415 10.3249 15.2756 11.1753 13.332C11.4756 12.6432 11.5371 11.8389 11.4677 11.0346C12.0067 10.6545 12.5116 10.2282 12.9766 9.76053C15.6058 7.14455 17.4196 2.41484 16.9156 0.217107ZM10.3535 6.6398C10.1134 6.39988 9.94988 6.09414 9.88358 5.76127C9.81728 5.42839 9.8512 5.08333 9.98103 4.76973C10.1109 4.45613 10.3308 4.18808 10.613 3.99949C10.8952 3.8109 11.227 3.71024 11.5664 3.71024C11.9058 3.71024 12.2376 3.8109 12.5198 3.99949C12.802 4.18808 13.0219 4.45613 13.1517 4.76973C13.2816 5.08333 13.3155 5.42839 13.2492 5.76127C13.1829 6.09414 13.0194 6.39988 12.7793 6.6398C12.6201 6.79923 12.431 6.9257 12.2229 7.012C12.0148 7.09829 11.7917 7.14271 11.5664 7.14271C11.3411 7.14271 11.118 7.09829 10.9099 7.012C10.7018 6.9257 10.5127 6.79923 10.3535 6.6398Z" fill="#131313"/>
<path d="M5.86109 13.1278C5.66519 13.324 5.35098 13.4005 4.97277 13.466C4.12306 13.6107 3.37273 12.8765 3.52537 12.0175C3.58364 11.6918 3.75594 11.2353 3.86318 11.1281C3.88662 11.1051 3.90222 11.0753 3.90777 11.043C3.91332 11.0106 3.90853 10.9773 3.89408 10.9478C3.87964 10.9184 3.85627 10.8942 3.8273 10.8787C3.79833 10.8633 3.76523 10.8573 3.7327 10.8618C3.25754 10.9199 2.81548 11.1354 2.4769 11.4738C1.63649 12.3149 1.55713 15.436 1.55713 15.436C1.55713 15.436 4.68 15.3566 5.52042 14.5155C5.85987 14.1772 6.07557 13.7345 6.13277 13.2586C6.14599 13.1092 5.96404 13.0202 5.86109 13.1278Z" fill="#FF5F52"/>
</svg>
