<svg width="57" height="56" viewBox="0 0 57 56" fill="none" xmlns="http://www.w3.org/2000/svg">
<path d="M55.7559 0.758948C55.733 0.648429 55.6791 0.546704 55.6004 0.465699C55.5218 0.384694 55.4216 0.327765 55.3117 0.301586C47.9837 -1.48787 31.0519 4.88895 21.8784 14.0474C20.2423 15.6684 18.7507 17.4287 17.4206 19.3084C14.5917 19.0584 11.7629 19.2671 9.35192 20.3168C2.54942 23.3071 0.568846 31.1098 0.0170884 34.4663C-0.0142083 34.65 -0.0024032 34.8385 0.0515749 35.0168C0.105553 35.1952 0.200232 35.3587 0.328166 35.4943C0.4561 35.63 0.613799 35.7341 0.788861 35.7986C0.963923 35.8631 1.15157 35.8861 1.33705 35.8659L12.2608 34.6625C12.2686 35.4851 12.3183 36.3067 12.4097 37.1242C12.4647 37.692 12.717 38.2225 13.1229 38.6238L17.353 42.8388C17.7552 43.2435 18.2862 43.4954 18.8544 43.551C19.6684 43.6419 20.4864 43.6915 21.3054 43.6997L20.1068 54.5965C20.0868 54.7817 20.1101 54.969 20.1747 55.1437C20.2393 55.3184 20.3436 55.4758 20.4794 55.6035C20.6151 55.7312 20.7787 55.8258 20.9571 55.8798C21.1356 55.9338 21.3242 55.9458 21.5081 55.9148C24.8624 55.3775 32.6884 53.3993 35.6649 46.6051C36.7158 44.1971 36.931 41.3854 36.6883 38.5738C38.5748 37.2452 40.3419 35.755 41.9694 34.1201C51.1716 24.9754 57.52 8.44163 55.7559 0.758948ZM32.7885 23.2109C31.9482 22.3722 31.3758 21.3035 31.1438 20.1398C30.9117 18.9762 31.0304 17.7699 31.4849 16.6737C31.9393 15.5774 32.709 14.6404 33.6967 13.9811C34.6844 13.3219 35.8457 12.97 37.0336 12.97C38.2216 12.97 39.3828 13.3219 40.3705 13.9811C41.3582 14.6404 42.128 15.5774 42.5824 16.6737C43.0368 17.7699 43.1555 18.9762 42.9235 20.1398C42.6914 21.3035 42.1191 22.3722 41.2788 23.2109C40.7216 23.7682 40.0599 24.2104 39.3314 24.512C38.603 24.8137 37.8222 24.969 37.0336 24.969C36.2451 24.969 35.4643 24.8137 34.7358 24.512C34.0074 24.2104 33.3457 23.7682 32.7885 23.2109Z" fill="white"/>
<path d="M17.0653 45.8916C16.3796 46.5777 15.2799 46.8451 13.9562 47.0738C10.9822 47.5799 8.356 45.0131 8.89024 42.0103C9.09418 40.8719 9.69723 39.2761 10.0726 38.9012C10.1546 38.8209 10.2092 38.7168 10.2286 38.6036C10.2481 38.4905 10.2313 38.3742 10.1807 38.2711C10.1302 38.168 10.0484 38.0835 9.94701 38.0295C9.84562 37.9755 9.72976 37.9548 9.61591 37.9703C7.95283 38.1735 6.40562 38.9266 5.22062 40.1096C2.27916 43.05 2.0014 53.9605 2.0014 53.9605C2.0014 53.9605 12.9315 53.683 15.8729 50.7427C17.061 49.56 17.8159 48.0124 18.0161 46.349C18.0624 45.8267 17.4256 45.5155 17.0653 45.8916Z" fill="#F4B9B2"/>
</svg>
