<svg width="88" height="88" viewBox="0 0 88 88" fill="none" xmlns="http://www.w3.org/2000/svg">
<path d="M87.2889 1.47259C87.2532 1.29985 87.1691 1.14086 87.0462 1.01425C86.9234 0.887642 86.7671 0.798664 86.5955 0.757748C75.1561 -2.03913 48.7244 7.92767 34.4041 22.2421C31.85 24.7756 29.5215 27.5269 27.4451 30.4648C23.0291 30.0742 18.6131 30.4003 14.8494 32.041C4.23029 36.7148 1.13849 48.9101 0.277164 54.1562C0.228308 54.4433 0.246737 54.7379 0.331 55.0167C0.415263 55.2955 0.563063 55.551 0.762776 55.763C0.962489 55.975 1.20867 56.1378 1.48195 56.2386C1.75523 56.3393 2.04817 56.3753 2.33771 56.3437L19.3904 54.4628C19.4026 55.7485 19.4802 57.0327 19.6229 58.3105C19.7087 59.1978 20.1026 60.0271 20.7361 60.6542L27.3397 67.2421C27.9675 67.8747 28.7964 68.2685 29.6834 68.3554C30.9541 68.4974 32.2311 68.575 33.5096 68.5878L31.6385 85.6191C31.6073 85.9085 31.6435 86.2013 31.7445 86.4744C31.8454 86.7475 32.0082 86.9935 32.2201 87.1931C32.432 87.3927 32.6873 87.5405 32.9659 87.6249C33.2445 87.7094 33.5389 87.7281 33.826 87.6796C39.0623 86.8398 51.2791 83.748 55.9256 73.1289C57.5662 69.3652 57.9022 64.9706 57.5233 60.5761C60.4682 58.4996 63.2267 56.1705 65.7674 53.6152C80.1326 39.3222 90.0428 13.4804 87.2889 1.47259ZM51.4354 36.5644C50.1236 35.2535 49.2301 33.5831 48.8679 31.7643C48.5057 29.9456 48.691 28.0603 49.4004 26.3469C50.1098 24.6334 51.3114 23.1689 52.8532 22.1385C54.3951 21.1081 56.2079 20.5581 58.0623 20.5581C59.9168 20.5581 61.7296 21.1081 63.2714 22.1385C64.8133 23.1689 66.0149 24.6334 66.7243 26.3469C67.4337 28.0603 67.619 29.9456 67.2567 31.7643C66.8945 33.5831 66.001 35.2535 64.6893 36.5644C63.8195 37.4355 62.7864 38.1265 61.6493 38.598C60.5122 39.0695 59.2933 39.3121 58.0623 39.3121C56.8313 39.3121 55.6124 39.0695 54.4753 38.598C53.3382 38.1265 52.3052 37.4355 51.4354 36.5644Z" fill="white"/>
<path d="M26.8906 72.0137C25.8203 73.0859 24.1035 73.5039 22.0371 73.8613C17.3945 74.6524 13.2949 70.6406 14.1289 65.9473C14.4473 64.168 15.3887 61.6738 15.9746 61.0879C16.1027 60.9623 16.1879 60.7995 16.2182 60.6227C16.2485 60.4459 16.2224 60.2641 16.1435 60.103C16.0645 59.9419 15.9369 59.8098 15.7786 59.7254C15.6203 59.641 15.4395 59.6086 15.2617 59.6328C12.6655 59.9505 10.2503 61.1275 8.40039 62.9766C3.80859 67.5723 3.375 84.625 3.375 84.625C3.375 84.625 20.4375 84.1914 25.0293 79.5957C26.884 77.7473 28.0625 75.3283 28.375 72.7285C28.4473 71.9121 27.4531 71.4258 26.8906 72.0137Z" fill="#F4B9B2"/>
</svg>

